<svg xmlns="http://www.w3.org/2000/svg" version="1.1" xmlns:xlink="http://www.w3.org/1999/xlink" xmlns:svgjs="http://svgjs.dev/svgjs" width="100%" height="100%" viewBox="0 0 1000 600"><rect width="1000" height="600" x="0" y="0" fill="#ea6b40"/><g><rect width="333.3333333333333" height="333.3333333333333" rx="13.333333333333334" ry="13.333333333333334" y="282.2519668408697" fill="#FFFF" transform="matrix(0.4807142068582855,0,0,0.4807142068582854,0,84.1984253693636)" x="260.0297546386719"/><path d="M405.03160216639174 481.6914990544418L420.7427372056186 492.63416679228925Q415.7813261405996 499.80064944176115 409.30392836126924 505.56139895614433Q402.7989671871332 511.32214847052745 395.1914702207707 515.4015309017652Q387.5839732544083 519.4809133330032 379.0117574698477 521.7135483122618Q370.43954168528705 523.9186198967145 361.2333678201963 523.9186198967145L361.2333678201963 523.9186198967145Q351.0624751369073 523.9186198967145 341.7184842977882 521.2725339953711Q332.34693006386345 518.598884699222 324.21572859619346 513.72016381862Q316.0845271285234 508.8138795432123 309.38662219074774 501.97815763140835Q302.7162806477778 495.1424357196044 297.94781334639845 486.8182904882948Q293.2069094398247 478.4941452569851 290.5883869332869 468.90208386461507Q287.9698644267491 459.310022472245 287.9698644267491 448.9186226305108L287.9698644267491 448.9186226305108Q287.9698644267491 438.5547861835822 290.5883869332869 428.9627247912121Q293.2069094398247 419.3706633988421 297.94781334639845 411.04651816753244Q302.7162806477778 402.6948095414171 309.38662219074774 395.8866510244188Q316.0845271285234 389.0509291126149 324.21572859619346 384.1446448372072Q332.34693006386345 379.2659239566052 341.7460476925939 376.5922746604561Q351.1451653213243 373.91862536430693 361.2333678201963 373.91862536430693L361.2333678201963 373.91862536430693Q369.8607103943682 373.91862536430693 377.90922167762125 375.8756263955089Q385.9577329608743 377.80506403190515 393.20690579476314 381.3883053566411Q400.4836420234577 384.97154668137705 406.7680960391484 390.09833811523004Q413.08011344964484 395.25269294388863 418.12421469908077 401.5371469595794L418.12421469908077 401.5371469595794L403.2951082936351 413.66504067407027Q395.74273811688397 404.2659230453398 384.9378873530648 398.72568068940194Q374.13303658924565 393.2130017282697 361.2333678201963 393.2130017282697L361.2333678201963 393.2130017282697Q349.98750273948656 393.2130017282697 340.2024975834769 397.6231448971755Q330.4174924274672 402.0332880660813 323.0580660143557 409.5856582428324Q315.69863960124417 417.1380284195835 311.481440195978 427.2813577080668Q307.2642407907119 437.39712360174445 307.2642407907119 448.9186226305108L307.2642407907119 448.9186226305108Q307.2642407907119 460.4676850540828 311.481440195978 470.6385777373717Q315.69863960124417 480.80947042066066 323.0580660143557 488.3618405974118Q330.4174924274672 495.91421077416294 340.2024975834769 500.32435394306873Q349.98750273948656 504.73449711197446 361.2333678201963 504.73449711197446L361.2333678201963 504.73449711197446Q368.0139629423889 504.73449711197446 374.3259803528853 503.1082568184405Q380.6104343685761 501.45445313010083 386.1782401193196 498.45004309628376Q391.7736092648688 495.4456330624667 396.5696399610538 491.17330686758925Q401.36567065723887 486.90098067271174 405.03160216639174 481.6914990544418L405.03160216639174 481.6914990544418ZM549.7118615013069 481.6914990544418L565.4229965405336 492.63416679228925Q560.4615854755145 499.80064944176115 553.9841876961843 505.56139895614433Q547.4792265220483 511.32214847052745 539.8717295556858 515.4015309017652Q532.2642325893235 519.4809133330032 523.6920168047627 521.7135483122618Q515.1198010202022 523.9186198967145 505.9136271551114 523.9186198967145L505.9136271551114 523.9186198967145Q495.7427344718225 523.9186198967145 486.3987436327033 521.2725339953711Q477.02718939877855 518.598884699222 468.8959879311085 513.72016381862Q460.76478646343844 508.8138795432123 454.0668815256629 501.97815763140835Q447.36897658788723 495.1424357196044 442.6280726813135 486.8182904882948Q437.8871687747398 478.4941452569851 435.268646268202 468.90208386461507Q432.6501237616642 459.310022472245 432.6501237616642 448.9186226305108L432.6501237616642 448.9186226305108Q432.6501237616642 438.5547861835822 435.268646268202 428.9627247912121Q437.8871687747398 419.3706633988421 442.6280726813135 411.04651816753244Q447.36897658788723 402.6948095414171 454.0668815256629 395.8866510244188Q460.76478646343844 389.0509291126149 468.8959879311085 384.1446448372072Q477.02718939877855 379.2659239566052 486.4263070275089 376.5922746604561Q495.8254246562394 373.91862536430693 505.9136271551114 373.91862536430693L505.9136271551114 373.91862536430693Q514.5409697292832 373.91862536430693 522.5894810125362 375.8756263955089Q530.6104289009836 377.80506403190515 537.8871651296781 381.3883053566411Q545.1639013583726 384.97154668137705 551.4483553740636 390.09833811523004Q557.7603727845599 395.25269294388863 562.8044740339958 401.5371469595794L562.8044740339958 401.5371469595794L547.9753676285502 413.66504067407027Q540.3954340569933 404.2659230453398 529.5905832931742 398.72568068940194Q518.8132959241607 393.2130017282697 505.9136271551114 393.2130017282697L505.9136271551114 393.2130017282697Q494.6677620744016 393.2130017282697 484.8827569183919 397.6231448971755Q475.09775176238225 402.0332880660813 467.7383253492707 409.5856582428324Q460.37889893615926 417.1380284195835 456.1616995308931 427.2813577080668Q451.944500125627 437.39712360174445 451.944500125627 448.9186226305108L451.944500125627 448.9186226305108Q451.944500125627 460.4676850540828 456.1616995308931 470.6385777373717Q460.37889893615926 480.80947042066066 467.7383253492707 488.3618405974118Q475.09775176238225 495.91421077416294 484.8827569183919 500.32435394306873Q494.6677620744016 504.73449711197446 505.9136271551114 504.73449711197446L505.9136271551114 504.73449711197446Q512.694222277304 504.73449711197446 519.0062396878004 503.1082568184405Q525.2906937034911 501.45445313010083 530.8584994542346 498.45004309628376Q536.4263052049782 495.4456330624667 541.2223359011632 491.17330686758925Q546.0183665973482 486.90098067271174 549.7118615013069 481.6914990544418L549.7118615013069 481.6914990544418Z " fill="#ea6b40" transform="matrix(0.4807142068582855,0,0,0.4807142068582854,0,84.1984253693636)"/><path d="M790.7200556285246 478.89447185185537L806.0234387741444 489.5531439725765Q801.1907914650013 496.53363453022763 794.881501922509 502.1448750169549Q788.5453643394103 507.7561155036821 781.1353051320575 511.72962551342204Q773.7252459247048 515.7031355231618 765.3755052961299 517.8778268122762Q757.0257646675548 520.0256700607843 748.0585191050337 520.0256700607843L748.0585191050337 520.0256700607843Q738.1515921212904 520.0256700607843 729.0501063557376 517.4482581625746Q719.9217725495785 514.8439982237587 712.001600570705 510.0918950364346Q704.0814285918316 505.31294380850426 697.5573547244885 498.6546297381293Q691.0601288977516 491.9963156677544 686.415417872853 483.88820740463655Q681.7975548885609 475.7800991415187 679.2469910309575 466.43698101050876Q676.6964271733541 457.0938628794988 676.6964271733541 446.97215157090466L676.6964271733541 446.97215157090466Q676.6964271733541 436.8772883029169 679.2469910309575 427.5341701719069Q681.7975548885609 418.1910520408969 686.415417872853 410.08294377777906Q691.0601288977516 401.94798747405486 697.5573547244885 395.3165214442863Q704.0814285918316 388.6582073739114 712.001600570705 383.87925614598106Q719.9217725495785 379.12715295865695 729.076954396344 376.522893019841Q738.2321362431095 373.918633081025 748.0585191050337 373.918633081025L748.0585191050337 373.918633081025Q756.4619558148215 373.918633081025 764.3015836718757 375.8248439640759Q772.1412115289302 377.7042068065204 779.2022462084003 381.194452085346Q786.2901289284769 384.68469736417154 792.4114821867247 389.6784329169528Q798.559683485579 394.6990165103403 803.4728749165411 400.8203697685882L803.4728749165411 400.8203697685882L789.0286290703245 412.6335076353824Q781.6722659441846 403.47832578861687 771.1478340264952 398.08186962674046Q760.6234021088057 392.71226150547034 748.0585191050337 392.71226150547034L748.0585191050337 392.71226150547034Q737.1045185376428 392.71226150547034 727.5734641223883 397.00794800248644Q718.0424097071339 401.3036344995025 710.8739828652383 408.6599976256425Q703.7055560233428 416.01636075178254 699.5978058105711 425.89643969491954Q695.4900555977995 435.7496705974501 695.4900555977995 446.97215157090466L695.4900555977995 446.97215157090466Q695.4900555977995 458.2214805849655 699.5978058105711 468.12840756870884Q703.7055560233428 478.0353345524522 710.8739828652383 485.39169767859215Q718.0424097071339 492.74806080473223 727.5734641223883 497.0437473017483Q737.1045185376428 501.33943379876433 748.0585191050337 501.33943379876433L748.0585191050337 501.33943379876433Q754.6631370941959 501.33943379876433 760.8113383930502 499.75539940298967Q766.9326916512981 498.14451696660865 772.3559958537809 495.21808054051644Q777.8061480968701 492.2916441144243 782.477707162375 488.13019782043995Q787.14926622788 483.9687515264556 790.7200556285246 478.89447185185537L790.7200556285246 478.89447185185537ZM931.6454207712583 478.89447185185537L946.9488039168781 489.5531439725765Q942.1161566077349 496.53363453022763 935.8068670652426 502.1448750169549Q929.470729482144 507.7561155036821 922.0606702747912 511.72962551342204Q914.6506110674385 515.7031355231618 906.3008704388635 517.8778268122762Q897.9511298102884 520.0256700607843 888.9838842477674 520.0256700607843L888.9838842477674 520.0256700607843Q879.076957264024 520.0256700607843 869.9754714984713 517.4482581625746Q860.8471376923121 514.8439982237587 852.9269657134387 510.0918950364346Q845.0067937345652 505.31294380850426 838.4827198672222 498.6546297381293Q831.958645999879 491.9963156677544 827.3407830155867 483.88820740463655Q822.7229200312944 475.7800991415187 820.1723561736911 466.43698101050876Q817.6217923160877 457.0938628794988 817.6217923160877 446.97215157090466L817.6217923160877 446.97215157090466Q817.6217923160877 436.8772883029169 820.1723561736911 427.5341701719069Q822.7229200312944 418.1910520408969 827.3407830155867 410.08294377777906Q831.958645999879 401.94798747405486 838.4827198672222 395.3165214442863Q845.0067937345652 388.6582073739114 852.9269657134387 383.87925614598106Q860.8471376923121 379.12715295865695 870.0023195390776 376.522893019841Q879.1575013858431 373.918633081025 888.9838842477674 373.918633081025L888.9838842477674 373.918633081025Q897.3873209575551 373.918633081025 905.2269488146094 375.8248439640759Q913.0397286310574 377.7042068065204 920.127611351134 381.194452085346Q927.2154940712105 384.68469736417154 933.3368473294584 389.6784329169528Q939.4850486283126 394.6990165103403 944.3982400592747 400.8203697685882L944.3982400592747 400.8203697685882L929.9539942130582 412.6335076353824Q922.5707830463118 403.47832578861687 912.0463511286225 398.08186962674046Q901.5487672515394 392.71226150547034 888.9838842477674 392.71226150547034L888.9838842477674 392.71226150547034Q878.0298836803764 392.71226150547034 868.4988292651219 397.00794800248644Q858.9677748498675 401.3036344995025 851.799348007972 408.6599976256425Q844.6309211660764 416.01636075178254 840.5231709533048 425.89643969491954Q836.4154207405331 435.7496705974501 836.4154207405331 446.97215157090466L836.4154207405331 446.97215157090466Q836.4154207405331 458.2214805849655 840.5231709533048 468.12840756870884Q844.6309211660764 478.0353345524522 851.799348007972 485.39169767859215Q858.9677748498675 492.74806080473223 868.4988292651219 497.0437473017483Q878.0298836803764 501.33943379876433 888.9838842477674 501.33943379876433L888.9838842477674 501.33943379876433Q895.5885022369296 501.33943379876433 901.7367035357838 499.75539940298967Q907.8580567940318 498.14451696660865 913.2813609965146 495.21808054051644Q918.7046651989974 492.2916441144243 923.3762242645023 488.13019782043995Q928.0477833300073 483.9687515264556 931.6454207712583 478.89447185185537L931.6454207712583 478.89447185185537ZM1060.1938391944643 468.5042801371977L1060.1938391944643 468.5042801371977Q1060.1938391944643 480.397962125811 1056.247177225331 490.4928253937988Q1052.273667215591 500.58768866178656 1045.373720779759 508.051443950352Q1038.500622384533 515.5151992389174 1029.2380483753423 519.703493573508Q1020.0023224067577 523.9186359487051 1009.5047385296746 523.9186359487051L1009.5047385296746 523.9186359487051Q999.0340026931981 523.9186359487051 989.8788208464325 519.9451259389652Q980.723638999667 515.9716159292254 973.8773886450476 508.668948884298Q967.0311382904282 501.33943379876433 963.0844763212947 491.1640264089575Q959.1109663115549 480.9617709785444 959.1109663115549 468.5042801371977L959.1109663115549 468.5042801371977Q959.1109663115549 455.9393971334257 963.0844763212947 445.7102936624062Q967.0311382904282 435.4543421507803 973.8773886450476 428.2053711870656Q980.723638999667 420.92955218274466 989.8788208464325 416.9560421730048Q999.0340026931981 413.0093802038713 1009.5047385296746 413.0093802038713L1009.5047385296746 413.0093802038713Q1020.0023224067577 413.0093802038713 1029.2380483753423 417.19767453846197Q1038.500622384533 421.412816913659 1045.373720779759 428.82287612101175Q1052.273667215591 436.2329353283645 1056.247177225331 446.38149467756494Q1060.1938391944643 456.50320598615906 1060.1938391944643 468.5042801371977ZM1040.2725930645524 468.31634385295325L1040.2725930645524 468.31634385295325Q1040.2725930645524 461.5237895795466 1038.5811665063522 454.5701470625018Q1036.889739948152 447.64335258606343 1033.211558385082 442.1126562211552Q1029.533376822012 436.60880789685336 1023.6805039698277 433.1185626180278Q1017.8276311176433 429.6014692985959 1009.5047385296746 429.6014692985959L1009.5047385296746 429.6014692985959Q1001.5040224289822 429.6014692985959 995.7316936986168 433.1185626180278Q989.9862130088578 436.60880789685336 986.308031445788 442.1126562211552Q982.6030018421116 447.64335258606343 980.9115752839114 454.5701470625018Q979.2201487257114 461.5237895795466 979.2201487257114 468.31634385295325L979.2201487257114 468.31634385295325Q979.2201487257114 475.1088981263599 981.0458154869432 482.00884456219205Q982.8983302887814 488.8819429574177 986.6839040142768 494.41263932232596Q990.4426296991658 499.94333568723414 996.1612623483185 503.4335809660597Q1001.8798949974712 506.9238262448853 1009.5047385296746 506.9238262448853L1009.5047385296746 506.9238262448853Q1017.5323026709734 506.9238262448853 1023.3314794419452 503.4335809660597Q1029.1575042535233 499.94333568723414 1032.9162299384122 494.41263932232596Q1036.7018036639076 488.8819429574177 1038.500622384533 482.00884456219205Q1040.2725930645524 475.1088981263599 1040.2725930645524 468.31634385295325ZM1104.0903855858473 518.7101160710731L1083.7932668874464 521.2606799286764Q1083.2294580347132 505.0176153618344 1082.773041344405 491.86207546472264Q1082.2897766134906 478.7065355676109 1081.9139040450018 468.31634385295325Q1081.538031476513 457.92615213829566 1081.296399111056 450.0059801594222Q1081.0547667455987 442.08580818054884 1080.8668304613543 436.3134794501835L1080.8668304613543 436.3134794501835Q1080.4909578928655 422.8089150251892 1080.3030216086208 416.31168919845237L1080.3030216086208 416.31168919845237L1101.835150174914 415.9358166299635L1102.2110227434027 443.1060337235902Q1105.3253954537395 437.7364256023201 1109.272057422873 432.9574743743897Q1113.245567432613 428.2053711870656 1117.8634304169052 424.52718962399564Q1122.508141441804 420.84900806092566 1127.743509360042 418.56692460938586Q1132.9788772782806 416.31168919845237 1138.7243579680394 415.9358166299635L1138.7243579680394 415.9358166299635Q1145.8927848099352 415.4525518990492 1151.2355448905987 417.14397845724926Q1156.5783049712627 418.8622530560557 1160.3370306561517 421.86923360396696Q1164.122604381647 424.9030621924846 1166.565776076825 429.01081240525616Q1169.0357958126092 433.1185626180278 1170.4587419647457 437.4947932368629Q1171.854840076276 441.8978718963044 1172.472345010222 446.2204064339268Q1173.0898499441682 450.5697890121556 1173.2777862284124 454.16742645340656L1173.2777862284124 454.16742645340656Q1173.841595081146 470.3836429796423 1173.5731146750823 486.81464383072876Q1173.2777862284124 503.24564468181524 1172.9019136599236 520.8848073601876L1172.9019136599236 520.8848073601876L1153.544476382745 520.2136063450287Q1154.2962215197228 505.0176153618344 1154.913726453669 489.82162437864Q1155.5312313876148 474.6256333954457 1154.779486250637 459.1611620061878L1154.779486250637 459.1611620061878Q1154.779486250637 457.4697354479877 1154.53785388518 454.7580833467463Q1154.2962215197228 452.07327928611124 1153.4907803015321 449.0662987382Q1152.712187123948 446.03247014968235 1151.2892409718115 443.0523376423775Q1149.866294819675 440.09905317567893 1147.6110594087415 437.87066580535185Q1145.3289759572017 435.64227843502476 1142.0803630438334 434.51466072955805Q1138.8317501304648 433.3870430240913 1134.4823675522362 434.05824403925004L1134.4823675522362 434.05824403925004Q1127.0186122636708 435.18586174471676 1119.3400726502546 444.95854852542834Q1111.634684996232 454.7312353061399 1102.7748315961362 473.4980156899789L1102.7748315961362 473.4980156899789Q1103.150704164625 488.6940066731733 1103.3923365300823 497.71494831690705Q1103.607120854933 506.7358899606408 1103.7950571391775 511.3537529449331L1103.7950571391775 511.3537529449331Q1104.0098414640283 516.8307532286285 1104.0903855858473 518.7101160710731L1104.0903855858473 518.7101160710731ZM1269.366923558541 415.9358166299635L1288.8049049575388 418.56692460938586L1251.7009128395623 517.9583709340952L1225.0945045986691 517.5824983656064L1191.9640224904324 422.24510617245585L1211.1335234833668 419.31866974636364L1239.350814160641 500.3997523775421L1269.366923558541 415.9358166299635ZM1350.4480061897193 505.6082722551741L1350.4480061897193 505.6082722551741Q1355.4417417425007 505.6082722551741 1360.3549331734625 504.0510859000058Q1365.2681246044249 502.49389954483746 1369.402722857803 499.51376703753255Q1373.5641691517872 496.53363453022763 1376.624845780911 492.1037078301798Q1379.7123704506414 487.673781130132 1381.1084685621718 481.8209082779476L1381.1084685621718 481.8209082779476L1399.3382881338837 485.49908984101756Q1396.680332113855 494.0904628350498 1391.874532845318 501.07095339270086Q1387.0687335767816 508.051443950352 1380.6520518718635 513.0451795031331Q1374.2353701669458 518.0657630965206 1366.5299825129232 520.8042632383685Q1358.851442899507 523.5427633802162 1350.4480061897193 523.5427633802162L1350.4480061897193 523.5427633802162Q1337.9905153483728 523.5427633802162 1328.3520687706928 519.7571896547208Q1318.7404702336194 515.9716159292254 1312.1090042038509 509.09851753399965Q1305.5043862146886 502.1985710981676 1302.0678370170758 492.4795803986687Q1298.631287819463 482.7605896991698 1298.631287819463 470.75951554813116L1298.631287819463 470.75951554813116Q1298.631287819463 458.9732257219433 1302.6316458698093 448.71727421031744Q1306.6588519607617 438.4881707392979 1313.6393425184128 430.9438713289134Q1320.619833076064 423.37272387792257 1330.043495328893 419.05018934030016Q1339.4940056223284 414.70080676207135 1350.4480061897193 414.70080676207135L1350.4480061897193 414.70080676207135Q1360.2475410110374 414.70080676207135 1368.9463061674949 418.5132285281731Q1377.6182232833462 422.35249833488126 1384.3302334349337 429.0913565270752Q1391.0422435865212 435.85706275987553 1395.3647781241439 445.01224460664105Q1399.7141607023725 454.16742645340656 1400.8417784078392 464.8260985741277L1400.8417784078392 464.8260985741277L1319.1163428021084 476.98826096880447Q1319.7606957766607 483.7002711203921 1322.4186517966896 489.04303120105584Q1325.0497597761118 494.35894324111325 1329.1575099888832 498.03712480418324Q1333.265260201655 501.7153063672533 1338.6885644041379 503.6483652909105Q1344.1118686066206 505.6082722551741 1350.4480061897193 505.6082722551741ZM1319.6801516548417 459.5370345746767L1376.4906055778793 452.6370881388446L1375.9267967251458 450.8382694182191Q1372.329159283895 441.4951512872091 1366.0735658226154 436.2329353283645Q1359.7911243207293 430.9438713289134 1350.4480061897193 430.9438713289134L1350.4480061897193 430.9438713289134Q1346.4744961799795 430.9438713289134 1341.7492410332618 432.31312139983726Q1337.0508339271505 433.68237147076115 1332.5940591864965 436.98468046534225Q1328.1641324864486 440.2869894599234 1324.6201911264102 445.79083778422523Q1321.0762497663718 451.3215341491334 1319.6801516548417 459.5370345746767L1319.6801516548417 459.5370345746767ZM1509.4957987417397 454.16742645340656L1490.8901066015387 461.1479170110577Q1490.8095624797197 456.50320598615906 1490.0846653833482 453.1203528697589Q1489.386616327583 449.7106517127524 1488.2858466627226 447.2674800175745Q1487.2119250384685 444.7974602817903 1485.8426749675448 443.2134258860156Q1484.473424896621 441.60254344963454 1483.0504787444843 440.5554698659869L1483.0504787444843 440.5554698659869Q1479.7481697499034 438.19284229262803 1475.6135714965253 438.30023445505344L1475.6135714965253 438.30023445505344Q1472.9556154764964 438.67610702354233 1469.9754829691917 440.5286218253805Q1467.0221985024932 442.35428858661237 1463.9078257921565 445.2270289314919Q1460.7934530818197 448.12661731697773 1457.6253842902704 451.751102798835Q1454.457315498721 455.37558828069234 1451.530879072629 459.21485808740044Q1448.6044426465367 463.0272798535022 1445.9733346671144 466.81285357899765Q1443.3153786470857 470.5715792638867 1441.2480795203965 473.68595197422337L1441.2480795203965 473.68595197422337Q1441.328623642216 480.77383469429986 1441.51655992646 487.6200850489193Q1441.7044962107047 494.4663354035386 1441.8655844543428 500.3460562963294Q1441.9998246573746 506.2526252297265 1442.2414570228316 511.03157645765685Q1442.4830893882888 515.7836796449809 1442.7515697943522 518.7101160710731L1442.7515697943522 518.7101160710731L1422.4544510959513 521.2606799286764Q1421.8906422432178 505.0176153618344 1421.43422555291 491.86207546472264Q1420.9509608219955 478.7065355676109 1420.5750882535067 468.31634385295325Q1420.1992156850179 457.92615213829566 1419.9575833195609 450.0059801594222Q1419.7159509541036 442.08580818054884 1419.5280146698592 436.3134794501835L1419.5280146698592 436.3134794501835Q1419.1521421013704 422.8089150251892 1418.9642058171257 416.31168919845237L1418.9642058171257 416.31168919845237L1440.4963343834188 415.9358166299635Q1440.5768785052378 421.6812973197225 1440.6305745864506 427.6684103749387Q1440.6842706676632 433.68237147076115 1440.7648147894824 438.67610702354233L1440.7648147894824 438.67610702354233Q1440.8722069519076 444.52897987572675 1440.8722069519076 450.0865242812413L1440.8722069519076 450.0865242812413Q1443.6107070937555 445.7639897436189 1447.5305210222828 440.5554698659869Q1451.45033495081 435.37379802896123 1456.3903744223785 430.75593504466895Q1461.3572619345532 426.1112240197703 1467.2369828273438 422.67467482215744Q1473.143551760741 419.2381256245446 1479.8555619123285 418.3789883251414L1479.8555619123285 418.3789883251414Q1487.3998613227132 418.0031157566525 1493.6286067433866 421.60075319790343L1493.6286067433866 421.60075319790343Q1496.259714722809 423.1042434718591 1498.8639746616248 425.60111124824965Q1501.4682346004406 428.09797902464027 1503.6697739301612 432.01779295316743Q1505.8981613004887 435.9376068816946 1507.4016515744443 441.3609110841774Q1508.9319898890062 446.7842152866602 1509.4957987417397 454.16742645340656L1509.4957987417397 454.16742645340656ZM1547.3246879560875 379.58356964896495L1566.1183163805326 378.3485597810728L1565.447115365374 420.55367961425577L1602.0678427524363 419.31866974636364L1600.6717446409057 436.98468046534225L1565.2591790811293 437.92436188656455L1564.5074339441517 520.2136063450287L1544.5861878142396 520.6968710759431L1546.1970702506208 438.4881707392979L1513.5498528732983 439.2399158762757L1513.9257254417876 421.86923360396696L1546.5729428191096 420.92955218274466L1547.3246879560875 379.58356964896495ZM1661.1603801270135 505.6082722551741L1661.1603801270135 505.6082722551741Q1666.180963720401 505.6082722551741 1671.0673071107567 504.0510859000058Q1675.9804985417188 502.49389954483746 1680.1419448357033 499.51376703753255Q1684.3033911296875 496.53363453022763 1687.3640677588114 492.1037078301798Q1690.4247443879353 487.673781130132 1691.847690540072 481.8209082779476L1691.847690540072 481.8209082779476L1710.0506620711776 485.49908984101756Q1707.4195540917553 494.0904628350498 1702.6137548232186 501.07095339270086Q1697.7811075140753 508.051443950352 1691.3644258091576 513.0451795031331Q1684.94774410424 518.0657630965206 1677.2692044908235 520.8042632383685Q1669.563816836801 523.5427633802162 1661.1603801270135 523.5427633802162L1661.1603801270135 523.5427633802162Q1648.702889285667 523.5427633802162 1639.0912907485933 519.7571896547208Q1629.4528441709135 515.9716159292254 1622.8482261817512 509.09851753399965Q1616.243608192589 502.1985710981676 1612.78021095437 492.4795803986687Q1609.343661756757 482.7605896991698 1609.343661756757 470.75951554813116L1609.343661756757 470.75951554813116Q1609.343661756757 458.9732257219433 1613.3708678477096 448.71727421031744Q1617.3712258980559 438.4881707392979 1624.351716455707 430.9438713289134Q1631.3322070133581 423.37272387792257 1640.7827173067935 419.05018934030016Q1650.2063795596223 414.70080676207135 1661.1603801270135 414.70080676207135L1661.1603801270135 414.70080676207135Q1670.9867629889377 414.70080676207135 1679.6586801047888 418.5132285281731Q1688.3574452612465 422.35249833488126 1695.0426073722278 429.0913565270752Q1701.7546175238153 435.85706275987553 1706.1040001020442 445.01224460664105Q1710.4265346396664 454.16742645340656 1711.5810003857396 464.8260985741277L1711.5810003857396 464.8260985741277L1629.8287167394024 476.98826096880447Q1630.499917754561 483.7002711203921 1633.1310257339835 489.04303120105584Q1635.7889817540122 494.35894324111325 1639.8698839261774 498.03712480418324Q1643.9776341389493 501.7153063672533 1649.4277863820384 503.6483652909105Q1654.851090584521 505.6082722551741 1661.1603801270135 505.6082722551741ZM1630.3925255921358 459.5370345746767L1687.2298275557796 452.6370881388446L1686.63917066244 450.8382694182191Q1683.0683812617954 441.4951512872091 1676.7859397599095 436.2329353283645Q1670.5034982580235 430.9438713289134 1661.1603801270135 430.9438713289134L1661.1603801270135 430.9438713289134Q1657.2137181578796 430.9438713289134 1652.4884630111624 432.31312139983726Q1647.7632078644447 433.68237147076115 1643.3332811643968 436.98468046534225Q1638.903354464349 440.2869894599234 1635.3594131043105 445.79083778422523Q1631.8154717442724 451.3215341491334 1630.3925255921358 459.5370345746767L1630.3925255921358 459.5370345746767ZM1820.2081726790339 454.16742645340656L1801.629328579439 461.1479170110577Q1801.5219364170134 456.50320598615906 1800.8238873612486 453.1203528697589Q1800.098990264877 449.7106517127524 1799.025068640623 447.2674800175745Q1797.9242989757627 444.7974602817903 1796.5550489048387 443.2134258860156Q1795.1857988339152 441.60254344963454 1793.7897007223846 440.5554698659869L1793.7897007223846 440.5554698659869Q1790.4873917278037 438.19284229262803 1786.3259454338195 438.30023445505344L1786.3259454338195 438.30023445505344Q1783.6948374543972 438.67610702354233 1780.7147049470918 440.5286218253805Q1777.7345724397874 442.35428858661237 1774.6201997294506 445.2270289314919Q1771.505827019114 448.12661731697773 1768.3377582275643 451.751102798835Q1765.1696894360152 455.37558828069234 1762.2432530099227 459.21485808740044Q1759.3436646244372 463.0272798535022 1756.6857086044083 466.81285357899765Q1754.054600624986 470.5715792638867 1751.9604534576906 473.68595197422337L1751.9604534576906 473.68595197422337Q1752.0678456201163 480.77383469429986 1752.2557819043604 487.6200850489193Q1752.443718188605 494.4663354035386 1752.577958391637 500.3460562963294Q1752.7121985946687 506.2526252297265 1752.9538309601257 511.03157645765685Q1753.1954633255828 515.7836796449809 1753.4907917722526 518.7101160710731L1753.4907917722526 518.7101160710731L1733.1936730738516 521.2606799286764Q1732.6298642211182 505.0176153618344 1732.1465994902042 491.86207546472264Q1731.6633347592897 478.7065355676109 1731.2874621908009 468.31634385295325Q1730.911589622312 457.92615213829566 1730.6968052974612 450.0059801594222Q1730.4551729320042 442.08580818054884 1730.2672366477595 436.3134794501835L1730.2672366477595 436.3134794501835Q1729.8913640792707 422.8089150251892 1729.703427795026 416.31168919845237L1729.703427795026 416.31168919845237L1751.208708320713 415.9358166299635Q1751.3161004831381 421.6812973197225 1751.3429485237448 427.6684103749387Q1751.3966446049571 433.68237147076115 1751.5040367673828 438.67610702354233L1751.5040367673828 438.67610702354233Q1751.5845808892018 444.52897987572675 1751.5845808892018 450.0865242812413L1751.5845808892018 450.0865242812413Q1754.3230810310497 445.7639897436189 1758.242894959577 440.5554698659869Q1762.1627088881041 435.37379802896123 1767.1295964002788 430.75593504466895Q1772.0696358718474 426.1112240197703 1777.9762048052444 422.67467482215744Q1783.8827737386414 419.2381256245446 1790.5679358496227 418.3789883251414L1790.5679358496227 418.3789883251414Q1798.1122352600073 418.0031157566525 1804.3409806806803 421.60075319790343L1804.3409806806803 421.60075319790343Q1806.9989367007092 423.1042434718591 1809.6031966395253 425.60111124824965Q1812.1806085377348 428.09797902464027 1814.408995908062 432.01779295316743Q1816.6105352377826 435.9376068816946 1818.1408735523446 441.3609110841774Q1819.6443638263004 446.7842152866602 1820.2081726790339 454.16742645340656L1820.2081726790339 454.16742645340656Z " fill="#FFFF" transform="matrix(0.4807142068582855,0,0,0.4807142068582854,0,84.1984253693636)"/></g></svg>